<?xml version="1.0" encoding="utf-8"?>
<!-- Generator: Adobe Illustrator 25.3.1, SVG Export Plug-In . SVG Version: 6.00 Build 0)  -->
<svg version="1.1" id="Layer_1" xmlns="http://www.w3.org/2000/svg" xmlns:xlink="http://www.w3.org/1999/xlink" x="0px" y="0px"
	 viewBox="0 0 1920 396.05" style="enable-background:new 0 0 1920 396.05;" xml:space="preserve">
<style type="text/css">
	.st0{fill:#FFFFFF;}
</style>
<g>
	<path class="st0" d="M972.27,141.11c0-19.05,0-38.1,0-57.15c0-19.05,0-38.1,0-57.48c1.55-0.14,2.86-0.39,4.16-0.37
		c12.87,0.2,25.85-0.59,38.58,0.88c24.93,2.89,38.9,17.25,42.73,42.18c0.89,5.75,1.54,11.61,1.54,17.42
		c-0.03,56.51-0.05,113.03-0.49,169.54c-0.13,16.69-3.11,33.11-8.15,49.1c-10.85,34.39-33.1,57.88-67.63,68.44
		c-34.57,10.58-69.78,13.56-104.97,2.94c-57.58-17.38-96.41-71.82-94.75-131.91c0.91-33.05,8.87-63.83,29.08-90.61
		c28.81-38.17,81.31-55.27,124.04-40.62C951.36,118.62,963.52,127.3,972.27,141.11z M971.16,250.95
		c-0.89-15.47-2.18-30.63-8.15-45.01c-8.22-19.79-24.12-27.62-44.48-28.03c-18.41-0.37-29.85,10.09-37.9,25.37
		c-1.27,2.42-2.36,4.97-3.2,7.56c-7.7,23.7-7.14,47.39,1.39,70.64c5.77,15.73,16.96,26.29,33.57,30.6
		c28.28,7.33,48.19-4.24,54.86-32.68C969.43,270.11,969.91,260.44,971.16,250.95z"/>
	<path class="st0" d="M28.43,276.41c1.52,0.58,2.6,0.69,3.25,1.29c18.03,16.52,40.24,23.92,63.53,28.47
		c22.4,4.37,45.03,5.59,67.49,0.24c16.79-4,24.38-15.29,22.37-31.76c-1.05-8.61-6.17-14.39-13.6-17.41
		c-10.12-4.12-20.58-7.55-31.14-10.37c-19.37-5.17-39.02-9.28-58.33-14.66c-8-2.23-15.66-6.11-23.04-10.06
		c-25.42-13.63-38.14-35.41-38.94-63.97c-1.24-44.28,20.25-75.56,57.55-96.81c29.16-16.62,61.14-20.53,94.15-18.25
		c18.09,1.25,35.8,4.39,52.37,12.07c18.24,8.45,32.79,20.68,39.23,40.58c1.05,3.24,2.08,6.67,2.14,10.02
		c0.24,13.52,0.1,27.04,0.1,41.06c-1.08-0.41-2.33-0.55-3.08-1.23c-18.15-16.48-40.36-23.66-63.86-27.48
		c-20.81-3.38-41.75-3.87-62.45,0.88c-5.26,1.21-10.49,3.38-15.18,6.07c-8.76,5.03-11.95,13.25-11.41,23.14
		c0.49,8.9,5.77,14.65,13.44,17.18c16.07,5.31,32.33,10.22,48.77,14.17c19.21,4.62,38.44,8.94,56.23,17.87
		c23.82,11.96,40.86,29.56,45.37,56.82c8.87,53.56-16.98,99.21-68.03,117.55c-42.31,15.2-85.57,15.51-128.39,1.56
		c-21.29-6.94-37.9-20.13-45.12-42.44c-1.83-5.65-3.03-11.71-3.27-17.64C28.08,301.3,28.43,289.27,28.43,276.41z"/>
	<path class="st0" d="M1390.43,383.25c-53.89-1.64-94.91-21.03-121.61-65.78c-15.73-26.36-19.62-55.33-16.1-85.46
		c3.81-32.55,16-61.27,39.79-84.39c21.71-21.1,48.11-32.54,77.83-36.51c38.8-5.19,74.56,2.75,105.8,26.9
		c32.23,24.92,48.57,58.49,50.49,98.93c1.29,27.3-2.93,53.82-15.52,78.41c-18.86,36.84-50.13,56.76-89.95,64.22
		C1410.07,381.65,1398.72,382.29,1390.43,383.25z M1340.22,244.27c0.39,13.74,1.76,27.89,7.73,41.14
		c8.27,18.33,22.64,27.33,42.67,27.49c19.47,0.15,32.24-9.95,40.34-26.75c7.07-14.67,8.1-30.35,6.73-46.29
		c-1.23-14.34-4.25-28.17-12.71-40.23c-17.39-24.81-51.65-25.88-70.38-2.15C1343.91,211,1340.12,226.75,1340.22,244.27z"/>
	<path class="st0" d="M661.15,116.58c16.4,0,32.11-1.19,47.57,0.26c27.15,2.56,41.86,17.4,42.49,44.58
		c0.91,38.95,1.48,78.05-0.83,116.91c-3.2,53.76-36.11,89.5-88.93,100.25c-31.92,6.5-63.84,6.33-95.31-2.8
		c-40.9-11.87-64.87-39.52-73-80.9c-2.2-11.21-3.2-22.82-3.29-34.26c-0.36-46.72-0.15-93.45-0.15-140.17c0-1.35,0.12-2.69,0.22-4.66
		c9.72,0,19.29-0.25,28.84,0.07c9.24,0.31,18.59,0.44,27.66,2.03c19.57,3.43,30.39,15.25,33.02,34.91c0.7,5.26,1.07,10.6,1.09,15.91
		c0.1,30.58-0.23,61.16,0.23,91.73c0.13,8.8,1.47,17.83,3.89,26.29c3.7,12.93,12.99,20.93,26.39,23.04
		c6.53,1.03,13.4,1.36,19.94,0.56c11.17-1.38,19.13-7.93,23.97-18.12c4.67-9.82,6.12-20.32,6.14-31.05
		c0.06-46.21,0.05-92.42,0.07-138.62C661.15,120.5,661.15,118.47,661.15,116.58z"/>
	<path class="st0" d="M465.25,303.3c0,13.84,0.71,27.09-0.21,40.22c-0.83,11.85-8.61,19.89-18.48,25.76
		c-10.71,6.37-22.6,8.78-34.85,9.88c-16.6,1.49-32.98,0.34-48.83-4.95c-30.4-10.15-47.68-31.77-53.25-62.91
		c-1.47-8.23-2.06-16.72-2.09-25.09c-0.18-52.9-0.02-105.81-0.14-158.71c-0.04-15.62,4.7-29.5,14.68-41.3
		c18.71-22.1,41.75-35.26,72.4-33.14c0,20.82,0,41.5,0,62.59c25.46,0,50.3,0,76.45,0c-0.61,13.88,0.35,27.61-2.18,40.66
		c-3.3,16.99-23.13,29.8-42.85,30.18c-8.41,0.16-16.83,0.03-25.24,0.03c-1.84,0-3.68,0-6.1,0c0,2.5,0,4.34,0,6.17
		c0,28.34-0.01,56.68,0.02,85.03c0,2.74,0.14,5.5,0.42,8.23c1.31,12.58,10.16,21.74,22.8,22.59c14.78,1,29.52,0.57,43.74-4.51
		C462.59,303.66,463.77,303.59,465.25,303.3z"/>
	<path class="st0" d="M1239.8,311.62c0,12.37,1.11,24.12-0.26,35.57c-2.01,16.83-13.42,26.3-29.28,29.93
		c-23.14,5.29-45.87,3.28-67.23-7.36c-23.88-11.89-34.53-32.89-37.71-58.33c-0.87-6.96-1.05-14.04-1.06-21.07
		c-0.08-53.26-0.05-106.52-0.05-159.78c0-2.01,0-4.03,0-6.5c18.98,0.15,37.54-1.34,55.72,3.34c19.98,5.15,30.72,18.34,32.84,40.48
		c0.78,8.19,1.03,16.45,1.07,24.68c0.12,28.35,0.05,56.7,0.05,85.04c0,1.55-0.01,3.09,0.01,4.64c0.23,19.44,8.58,28.25,28.11,29.3
		C1227.94,311.89,1233.92,311.62,1239.8,311.62z"/>
	<path class="st0" d="M1900.03,120.34c-1.75,28.38-6.28,55.99-19.55,81.51c-13.37,25.72-33.53,42.42-62.69,47.57
		c-41.57,7.33-76.13-19.96-77.61-62.07c-1.17-33.24,3.91-65.4,19.54-95.19c12.34-23.53,30.72-39.73,57.51-44.91
		c14.8-2.86,29.38-2.1,43.56,3.24c22.6,8.5,34.85,25.23,38,48.81C1899.71,106.24,1899.65,113.32,1900.03,120.34z M1787.48,176.61
		c1.42,6.99,2.08,14.25,4.45,20.9c3.18,8.92,11.73,13.05,20.84,10.36c4.59-1.36,9.51-3.75,12.71-7.15
		c4.61-4.9,8.46-10.81,11.45-16.88c6.56-13.34,10.05-27.78,11.4-42.49c1.14-12.38,2.13-25.05,0.77-37.33
		c-1.59-14.27-14.79-20.31-27.87-14.05c-3.76,1.8-7.51,4.49-10.05,7.73c-3.97,5.07-7.56,10.67-10.15,16.56
		C1792.33,134,1789.42,155.01,1787.48,176.61z"/>
	<path class="st0" d="M1568.26,185.5c19.69,17.01,42,19.64,65.73,14.71c10.94-2.28,16.49-8.77,16.75-17.44
		c0.21-7.19-2.52-11.63-9.56-13.26c-6.82-1.58-13.87-2.16-20.83-3.06c-13.52-1.76-17.58-7.19-15.18-20.47
		c0.52-2.87,1.58-5.72,1.59-8.58c0.01-5.54,3.17-6.54,7.79-6.91c10.94-0.89,21.87-1.99,32.75-3.39c3.32-0.43,6.65-1.74,9.69-3.25
		c5.84-2.9,8.15-8.04,7.99-14.42c-0.15-6.01-3.87-9.42-8.9-11.46c-12.04-4.88-24.48-4.56-36.98-2.23
		c-12.16,2.26-22.98,7.62-33.39,15.31c2.26-22.96,7.75-43.42,29.68-54.61c22.83-11.65,46.92-14.33,71.44-6.89
		c30.78,9.35,42.32,38.11,28.14,68.05c-4.97,10.5-12.65,18.7-21.74,25.7c-1.47,1.13-2.94,2.28-4.58,3.54
		c2.31,2.43,4.53,4.54,6.48,6.87c7.32,8.77,10.55,18.69,8.38,30.14c-6.67,35.16-31.35,58.9-67.64,64.94
		c-15.7,2.61-31.42,3.54-46.97-0.86c-20.9-5.91-29.41-20.05-25.09-41.44C1565.18,199.58,1566.71,192.73,1568.26,185.5z"/>
	<path class="st0" d="M1145.74,12.51c19.19,0.82,33.9,8.13,42.63,24.64c7.94,15.04,7.11,30.38-2.79,44.27
		c-11.8,16.57-28.56,22.64-48.31,18.88c-18.74-3.57-31.54-14.67-36.49-33.45c-6.22-23.6,10.48-48.22,35.63-53.08
		C1139.76,13.12,1143.18,12.85,1145.74,12.51z"/>
</g>
</svg>
