<?xml version="1.0" encoding="utf-8"?>
<!-- Generator: Adobe Illustrator 25.2.1, SVG Export Plug-In . SVG Version: 6.00 Build 0)  -->
<svg version="1.1" id="Layer_1" xmlns="http://www.w3.org/2000/svg" xmlns:xlink="http://www.w3.org/1999/xlink" x="0px" y="0px"
	 viewBox="0 0 2620.37 585.19" style="enable-background:new 0 0 2620.37 585.19;" xml:space="preserve">
<style type="text/css">
	.st0{fill:#FFFFFF;}
</style>
<g>
	<path class="st0" d="M103.66,517.97c-9.66,10.83-20.86,16.92-34.28,18.69c-31.65,4.17-60.11-20.6-60.17-52.57
		c-0.08-42.3,0.1-84.61,0.13-126.91c0.04-61.36,0.03-122.71,0.04-184.07c0-26.55,20.88-47.69,47.47-47.83
		c22.43-0.13,44.87-0.34,67.29,0.05c32.99,0.57,62.08-10.35,88.5-29.25c14.41-10.3,28.26-21.38,42.68-31.66
		c33.55-23.94,70.96-38.82,111.39-46.26c19.56-3.6,39.25-5.85,59.22-5.58c22.22,0.3,44.45,0.06,66.68,0.07
		c56.33,0.04,103.37,40.51,111.2,96.32c4.2,29.93-3.02,57.31-21,81.73c-0.42,0.58-0.86,1.14-1.28,1.73
		c-0.12,0.16-0.19,0.36-0.7,1.34c2.2,2,4.66,4.11,6.99,6.37c8.96,8.73,17.75,17.56,23.89,28.68c7.91,14.31,11.48,29.72,11.89,45.91
		c0.24,9.31,0.31,18.65-0.01,27.96c-0.76,22.21-6.08,43.08-18.9,61.65c-10.79,15.64-23.17,29.9-36.22,43.7
		c-47.23,49.9-104.58,84.76-166.61,112.61c-47.64,21.39-97.35,36.36-148.77,45.52c-23.33,4.15-46.84,6.54-70.58,6.37
		c-8.91-0.06-17.84-0.35-26.73,0.07c-13.75,0.65-24.95-5-34.76-13.71c-11.26-10.01-16.95-22.87-17.35-37.99
		C103.65,520.2,103.66,519.53,103.66,517.97z M350.03,132.21c0.15,0.6,0.3,0.89,0.28,1.18c-0.27,4.09-0.68,8.17-0.85,12.26
		c-1.44,35.91,13.31,63.18,44.07,81.62c12.03,7.21,25.69,10.07,39.28,12.63c16.79,3.17,33.73,5.59,50.53,8.72
		c12.45,2.32,24.47,6.11,34.92,13.61c10.52,7.54,15.35,17.81,14.04,30.8c-1.24,12.34-6.83,22.55-15.27,31.42
		c-20.36,21.4-43.12,39.92-67.63,56.31c-66.74,44.62-139.55,74.98-217.9,92.01c-21.87,4.75-43.83,9.09-66.49,9.1
		c-12.73,0.01-22.16,7.1-27.11,18.92c-4.95,11.82-2.92,22.98,5.49,32.65c6.34,7.29,14.63,10.44,24.32,10.37
		c34.78-0.25,68.96-5.14,102.77-13.06c80.64-18.9,155.3-51.26,223.11-99.04c32.26-22.73,60.61-49.47,82.53-82.5
		c15.59-23.48,21.56-49.39,16.77-77.28c-4.97-28.89-21.72-49.78-46.07-65.14c-17.49-11.03-36.96-16.17-57.07-19.7
		c-19.85-3.49-39.67-7.24-59.4-11.37c-13.41-2.81-21.74-15.87-18.99-29.29c2.7-13.19,9.93-23.34,22.29-29.13
		c13.82-6.47,28.26-6.59,42.98-3.54c15.37,3.19,26.97,11.34,34.61,25.1c1.74,3.13,3.54,6.24,5.53,9.21
		c7.23,10.82,20.35,16.01,32.71,13.03c12.9-3.1,22.31-13.54,23.64-26.73c0.88-8.69-0.64-17.19-3.73-25.32
		c-7.15-18.78-20.39-32.5-37.14-42.87c-27.14-16.81-57.43-22.74-88.79-24.24c-17.02-0.81-33.95,0.58-50.82,3.13
		c-48.93,7.39-93.41,25.24-132.87,55.42c-14.47,11.06-29.03,22.11-44.33,31.95c-23.26,14.96-49,22.21-76.87,21.78
		c-22.43-0.35-44.86-0.15-67.3-0.04c-20.38,0.1-32.97,12.82-32.98,33.09c-0.02,62.18-0.01,124.35-0.05,186.53
		c-0.02,34.82-0.12,69.65-0.22,104.47c-0.02,5.87,1.22,11.37,4.18,16.46c7.03,12.08,21.24,17.94,34.91,14.39
		c13.57-3.52,23.04-15.65,23.05-29.79c0.02-47.53-0.02-95.06-0.03-142.58c0-1.28,0-2.56,0-4.02c1.74,0,2.96,0,4.19,0
		c21.82-0.01,43.64,0.01,65.45-0.06c2.65-0.01,5.34-0.22,7.93-0.76c15.67-3.32,25.93-17.5,24.37-33.52
		c-1.5-15.42-14.43-27.27-30.4-27.4c-22.12-0.19-44.25-0.09-66.37-0.11c-1.6,0-3.2,0-4.85,0c0-18.49,0-36.55,0-54.86
		c1.33,0,2.44,0,3.55,0c10.76-0.01,21.51-0.13,32.27,0c20.4,0.24,40.46-1.83,60.07-7.74c26.38-7.95,50.19-20.95,72.51-36.81
		c22.21-15.79,46.34-27.7,72.11-36.38C343.95,134.07,346.97,133.17,350.03,132.21z"/>
	<g>
		<path class="st0" d="M717.22,379.49c54.88,31.71,117.08,45.13,147.57,45.13c25.61,0,43.9-9.15,43.9-31.71
			c0-31.71-35.37-31.71-91.47-51.22c-67.08-23.17-113.42-56.1-113.42-127.45c0-85.98,66.47-140.25,165.26-140.25
			c45.73,0,102.45,11.59,143.91,32.32v115.86c-53.05-29.88-111.59-43.9-142.69-43.9c-23.17,0-39.03,7.32-39.03,26.83
			c0,28.66,34.15,28.66,87.81,47.56c68.91,24.39,117.08,58.54,117.08,132.94c0,89.03-70.13,143.3-172.57,143.3
			c-45.13,0-101.84-10.37-146.35-31.71V379.49z"/>
		<path class="st0" d="M1295.3,514.25c-17.08,7.93-46.34,14.64-75.01,14.64c-37.2,0-68.91-11.59-88.42-31.1
			c-17.08-17.08-29.27-42.69-29.27-94.52v-85.98h-44.52v-95.13h44.52v-75.01l120.74-20.73v95.74h71.96v95.13h-71.96v77.44
			c0,23.78,7.32,37.2,29.88,37.2c13.42,0,29.27-4.88,42.08-9.76V514.25z"/>
		<path class="st0" d="M1537.37,497.18c-21.95,17.68-50.61,31.71-85.37,31.71c-32.93,0-59.76-12.2-76.83-27.44
			c-21.34-19.51-31.1-47.57-31.1-92.69v-186.6h120.74V392.9c0,15.85,3.05,23.17,8.54,28.66c6.1,6.1,14.03,8.54,22.56,8.54
			c14.03,0,29.27-6.71,40.25-17.07V222.16h120.74v300.02h-118.3v-24.39L1537.37,497.18z"/>
		<path class="st0" d="M1912.99,506.33c-20.12,15.24-46.34,22.56-71.96,22.56c-71.96,0-137.2-57.32-137.2-150.01
			c0-95.74,70.13-163.43,157.94-163.43c18.29,0,34.76,3.05,48.78,8.54l1.22-0.61V56.3h120.74v465.88h-118.3v-15.24L1912.99,506.33z
			 M1911.77,317.29c-8.54-3.66-18.29-6.1-29.88-6.1c-39.64,0-56.1,28.66-56.1,62.2c0,34.76,17.68,61.59,52.44,61.59
			c12.81,0,25-3.66,33.54-7.93V317.29z"/>
		<path class="st0" d="M2157.51,59.35c35.37,0,63.42,28.05,63.42,62.81c0,34.76-28.05,62.81-63.42,62.81
			c-35.37,0-63.42-28.05-63.42-62.81C2094.09,87.4,2122.14,59.35,2157.51,59.35z M2097.14,222.16h120.74v300.02h-120.74V222.16z"/>
		<path class="st0" d="M2438,215.45c100.62,0,173.18,68.3,173.18,156.72c0,88.42-72.57,156.72-173.18,156.72
			s-173.18-68.3-173.18-156.72C2264.82,283.75,2337.38,215.45,2438,215.45z M2438,428.27c31.1,0,53.66-24.39,53.66-56.1
			c0-31.71-22.56-56.1-53.66-56.1c-31.1,0-53.66,24.39-53.66,56.1C2384.34,403.88,2406.9,428.27,2438,428.27z"/>
	</g>
</g>
</svg>
