<?xml version="1.0" encoding="utf-8"?>
<!-- Generator: Adobe Illustrator 25.3.1, SVG Export Plug-In . SVG Version: 6.00 Build 0)  -->
<svg version="1.1" id="Layer_1" xmlns="http://www.w3.org/2000/svg" xmlns:xlink="http://www.w3.org/1999/xlink" x="0px" y="0px"
	 viewBox="0 0 1090 1080" style="enable-background:new 0 0 1090 1080;" xml:space="preserve">
<g>
	<path d="M130.97,1074.69c-0.88,0-1.76,0-2.64,0c-8.74-1.21-17.6-0.54-26.35-1.67c-19.55-2.52-35.98-11.82-50.62-24.24
		c-17.06-14.47-29.51-32.32-36.59-53.78c-2.47-7.5-3.47-15.28-3.66-22.94c-0.25-10.02-0.79-20.04-0.79-30.09
		c0.11-167.75-0.14-335.5,0.29-503.24c0.07-29.04-0.4-58.26,5.49-87.04c15.7-76.79,49-144.85,101.29-203.3
		C185.13,72.66,269.35,26.23,369.44,9c19.51-3.36,39.48-2.92,59.3-3.06C604.49,4.74,780.25,5.65,956,5.58
		c15.84-0.01,32.04-0.58,47.32,5.38c32.98,12.86,56.52,35.52,70.24,68.19c4.35,10.35,4.77,21.47,5.47,32.49
		c0.25,3.9-0.7,7.86,0.65,11.7c0,0.88,0,1.76,0,2.64c-0.9,10.43-0.56,21-2.36,31.31c-2.25,12.85-8.13,24.39-15.47,35.04
		c-19.66,28.52-46.72,45.97-80.77,52.1c-9.45,1.7-19.17,2.12-28.84,2.12c-172.8-0.01-345.59,0.16-518.39-0.11
		c-49.74-0.08-92.74,16.55-128.18,50.91c-30.12,29.21-47.85,65.4-52.5,107.34c-6.34,57.24,10.78,107.15,50.97,147.95
		c33.57,34.07,75.21,52.06,123.52,52.23c82.12,0.29,164.23,0.06,246.35,0.09c26.21,0.01,50.5,6.3,71.29,22.96
		c23.78,19.06,37.3,43.67,40.08,74.26c5.16,56.75-36.64,107.9-95.02,114.01c-5.03,0.53-10.04,0.91-15.1,0.9
		c-82.12-0.02-164.23-0.04-246.35-0.01c-88.4,0.03-161.55,61.46-177.12,148.65c-3.97,22.25-10.41,43.53-24.23,61.97
		c-12.77,17.04-28.63,30.16-48.01,39.05c-13.23,6.07-27.29,7.03-41.52,7.3C135.69,1074.11,133.23,1073.36,130.97,1074.69z"/>
	<path d="M587.04,1073.36c-50.07,0-100.14,0-150.21,0c-46.97,0-80.17-30.1-80.53-73c-0.39-45.79,32.1-78.12,80.05-78.3
		c94.87-0.37,189.73-0.09,284.6-0.15c111.69-0.07,207.02-94.6,207.22-205.38c0.21-117.19-92.61-213.29-206.87-213.66
		c-95.96-0.31-191.93-0.04-287.89-0.09c-44.45-0.02-77.16-32.35-77.12-76.03c0.03-43.11,32.96-75.67,77-75.39
		c110.41,0.7,221.49-5.65,331.09,4.23c186.19,16.77,317,179.5,313.9,377.16c-2.67,170.36-150.39,325.82-325.95,339.6
		c-54.78,4.3-110.18,0.67-165.3,0.67C587.04,1073.13,587.04,1073.25,587.04,1073.36z"/>
</g>
</svg>
