<svg width="602" height="801" viewBox="0 0 602 801" fill="none" xmlns="http://www.w3.org/2000/svg">
<path d="M1.14999 659.62L0.959992 626.23C1.00666 626.123 1.08333 626.047 1.18999 626C1.2895 625.954 1.40134 625.943 1.50687 625.968C1.6124 625.994 1.70526 626.054 1.76999 626.14C10.59 637.62 10.3833 648.78 1.14999 659.62Z" fill="#28DFDF"/>
<path d="M0.949982 475.8L0.959982 461.98C7.17998 460.28 11.87 464.26 10.85 470.57C10.09 475.257 6.78998 477 0.949982 475.8Z" fill="#BE5FD2"/>
<path d="M0.959992 275.98L0.959992 274.73L23.07 252.6C23.1788 252.491 23.3262 252.43 23.48 252.43C23.6338 252.43 23.7812 252.491 23.89 252.6L33.02 261.73C33.0771 261.786 33.1225 261.853 33.1534 261.927C33.1843 262.002 33.2002 262.081 33.2002 262.162C33.2002 262.243 33.1843 262.323 33.1534 262.398C33.1225 262.473 33.0771 262.542 33.02 262.6L10.64 284.98C10.5389 285.08 10.4023 285.136 10.26 285.136C10.1177 285.136 9.98111 285.08 9.87999 284.98L0.959992 275.98Z" fill="#FA7696"/>
<path d="M0.959991 112.73L0.989992 97.67C4.32999 99.7966 7.66999 100.457 11.01 99.6499C19.56 97.5899 21.83 88.5099 16.7 81.4499C16.6081 81.3248 16.5647 81.1703 16.5775 81.0144C16.5904 80.8585 16.6586 80.7115 16.77 80.5999L25.82 71.57C25.8669 71.5234 25.9225 71.4867 25.9836 71.4619C26.0446 71.4371 26.1098 71.4248 26.1752 71.4257C26.2406 71.4266 26.3048 71.4408 26.3641 71.4673C26.4234 71.4938 26.4764 71.5321 26.52 71.5799C43.89 90.6999 25.9 120.72 0.959991 112.73Z" fill="#33D5AD"/>
<path fill-rule="evenodd" clip-rule="evenodd" d="M92.2125 730.517C88.398 726.703 83.2245 724.56 77.83 724.56C72.4355 724.56 67.2619 726.703 63.4474 730.517C59.633 734.332 57.49 739.505 57.49 744.9C57.49 750.294 59.6329 755.468 63.4474 759.283C67.2619 763.097 72.4355 765.24 77.83 765.24C83.2245 765.24 88.398 763.097 92.2125 759.283C96.027 755.468 98.17 750.294 98.17 744.9C98.17 739.505 96.027 734.332 92.2125 730.517ZM77.83 738.63C81.2873 738.63 84.09 741.433 84.09 744.89C84.09 748.347 81.2873 751.15 77.83 751.15C74.3727 751.15 71.57 748.347 71.57 744.89C71.57 741.433 74.3727 738.63 77.83 738.63Z" fill="#BE5FD2"/>
<path d="M117.11 416.1C105.64 407.16 92.33 421.16 101.36 431.78C101.45 431.889 101.496 432.028 101.488 432.17C101.481 432.312 101.421 432.448 101.32 432.55L92.67 441.21C92.5419 441.337 92.3883 441.434 92.2195 441.497C92.0506 441.56 91.8704 441.586 91.6907 441.574C91.511 441.561 91.3359 441.511 91.1772 441.426C91.0185 441.341 90.8797 441.223 90.77 441.08C70.77 415.27 103.33 384.93 126.75 406.09C126.82 406.153 126.876 406.229 126.915 406.315C126.954 406.4 126.976 406.493 126.977 406.588C126.979 406.682 126.962 406.776 126.926 406.864C126.891 406.953 126.837 407.033 126.77 407.1L117.81 416.06C117.718 416.151 117.596 416.205 117.468 416.212C117.339 416.22 117.212 416.18 117.11 416.1Z" fill="#FFBA24"/>
<path d="M119.176 614.124L141.506 636.454C141.76 636.708 142.171 636.708 142.425 636.454L151.504 627.375C151.758 627.121 151.758 626.71 151.504 626.456L129.174 604.126C128.92 603.872 128.509 603.872 128.255 604.126L119.176 613.205C118.922 613.459 118.922 613.87 119.176 614.124Z" fill="#FF8064"/>
<path d="M137.35 41.73C137.35 37.5768 133.983 34.21 129.83 34.21C125.677 34.21 122.31 37.5768 122.31 41.73C122.31 45.8832 125.677 49.25 129.83 49.25C133.983 49.25 137.35 45.8832 137.35 41.73Z" fill="#FF8064"/>
<path fill-rule="evenodd" clip-rule="evenodd" d="M149.614 192.858C147.146 191.836 144.501 191.31 141.83 191.31C136.435 191.31 131.262 193.453 127.447 197.267C123.633 201.082 121.49 206.255 121.49 211.65C121.49 217.044 123.633 222.218 127.447 226.033C131.262 229.847 136.435 231.99 141.83 231.99C144.501 231.99 147.146 231.464 149.614 230.442C152.082 229.42 154.324 227.921 156.213 226.033C158.101 224.144 159.6 221.902 160.622 219.434C161.644 216.966 162.17 214.321 162.17 211.65C162.17 208.979 161.644 206.334 160.622 203.866C159.6 201.398 158.101 199.156 156.213 197.267C154.324 195.379 152.082 193.88 149.614 192.858ZM141.83 205.41C145.282 205.41 148.08 208.208 148.08 211.66C148.08 215.112 145.282 217.91 141.83 217.91C138.378 217.91 135.58 215.112 135.58 211.66C135.58 208.208 138.378 205.41 141.83 205.41Z" fill="#4167F1"/>
<path d="M203.34 504.29C203.34 500.137 199.973 496.77 195.82 496.77C191.667 496.77 188.3 500.137 188.3 504.29C188.3 508.443 191.667 511.81 195.82 511.81C199.973 511.81 203.34 508.443 203.34 504.29Z" fill="#33D5AD"/>
<path d="M206.174 327.035L198.999 358.364C198.965 358.509 199.056 358.654 199.202 358.687L212.302 361.688C212.448 361.721 212.593 361.63 212.626 361.485L219.801 330.156C219.834 330.011 219.744 329.866 219.598 329.833L206.498 326.832C206.352 326.799 206.207 326.89 206.174 327.035Z" fill="#FF8064"/>
<path d="M235.57 677.49C235.585 677.443 235.609 677.4 235.64 677.363C235.672 677.326 235.711 677.295 235.755 677.274C235.799 677.252 235.847 677.24 235.896 677.238C235.945 677.235 235.994 677.243 236.04 677.26C244.34 680.38 249.69 685.723 252.09 693.29C258.2 712.55 240.99 730.75 221.51 725.2C221.438 725.181 221.37 725.147 221.311 725.101C221.252 725.054 221.203 724.996 221.167 724.93C221.13 724.864 221.107 724.791 221.099 724.715C221.091 724.64 221.098 724.563 221.12 724.49L224.82 712.36C224.865 712.214 224.961 712.088 225.091 712.004C225.22 711.92 225.375 711.883 225.53 711.9C240.24 713.67 244.9 696.02 232.05 690.74C231.908 690.682 231.793 690.572 231.728 690.433C231.663 690.294 231.653 690.136 231.7 689.99L235.57 677.49Z" fill="#FA7696"/>
<path d="M222.778 114.926L232.642 144.926C232.739 145.22 233.055 145.38 233.349 145.283L245.584 141.261C245.878 141.164 246.038 140.848 245.942 140.554L236.078 110.554C235.981 110.26 235.665 110.1 235.371 110.197L223.136 114.219C222.842 114.316 222.682 114.632 222.778 114.926Z" fill="#28DFDF"/>
<path d="M312.45 800.01L277.15 800.04L276.8 799.74C276.722 799.674 276.67 799.582 276.654 799.482C276.637 799.381 276.657 799.277 276.71 799.19C281.477 791.35 288.31 787.89 297.21 788.81C304.203 789.53 309.283 793.263 312.45 800.01Z" fill="#28DFDF"/>
<path d="M307.486 500.893L284.943 523.436C284.748 523.631 284.748 523.948 284.943 524.143L294.107 533.307C294.302 533.502 294.619 533.502 294.814 533.307L317.357 510.764C317.552 510.569 317.552 510.252 317.357 510.057L308.193 500.893C307.998 500.698 307.681 500.698 307.486 500.893Z" fill="#4167F1"/>
<path d="M289.77 0.0399781L308.52 0.0399783L308.69 0.289978C308.732 0.358404 308.75 0.43884 308.741 0.518555C308.732 0.59827 308.696 0.672698 308.64 0.729981L298.02 11.35C297.962 11.4071 297.893 11.4525 297.818 11.4834C297.743 11.5143 297.663 11.5302 297.582 11.5302C297.501 11.5302 297.422 11.5143 297.347 11.4834C297.273 11.4525 297.206 11.4071 297.15 11.35L288.05 2.25C287.938 2.13897 287.872 1.9901 287.865 1.83276C287.857 1.67543 287.909 1.521 288.01 1.39996C288.517 0.80663 289.103 0.353311 289.77 0.0399781Z" fill="#FA7696"/>
<path d="M329.57 318.41C329.491 318.505 329.394 318.583 329.283 318.638C329.173 318.693 329.053 318.724 328.93 318.73C328.807 318.735 328.685 318.715 328.572 318.67C328.458 318.626 328.355 318.557 328.27 318.47L319.44 309.65C319.348 309.556 319.294 309.432 319.288 309.301C319.283 309.17 319.326 309.041 319.41 308.94C328.42 298.37 316 284.69 303.68 293.18C303.564 293.261 303.423 293.298 303.282 293.286C303.141 293.273 303.01 293.211 302.91 293.11L293.87 284.08C293.814 284.024 293.771 283.958 293.741 283.885C293.712 283.812 293.698 283.734 293.7 283.656C293.702 283.577 293.72 283.5 293.752 283.428C293.785 283.357 293.832 283.293 293.89 283.24C317.44 261.95 350.66 292.58 329.57 318.41Z" fill="#28DFDF"/>
<path d="M339.45 127.27C339.45 123.122 336.088 119.76 331.94 119.76C327.792 119.76 324.43 123.122 324.43 127.27C324.43 131.418 327.792 134.78 331.94 134.78C336.088 134.78 339.45 131.418 339.45 127.27Z" fill="#BE5FD2"/>
<path d="M349.482 669.799L360.186 699.53C360.287 699.811 360.597 699.957 360.877 699.856L373.052 695.472C373.333 695.371 373.479 695.062 373.378 694.781L362.673 665.049C362.572 664.769 362.263 664.623 361.983 664.724L349.808 669.108C349.527 669.209 349.381 669.518 349.482 669.799Z" fill="#33D5AD"/>
<path fill-rule="evenodd" clip-rule="evenodd" d="M420.523 388.777C416.708 384.963 411.534 382.82 406.14 382.82C400.745 382.82 395.572 384.963 391.757 388.777C387.943 392.592 385.8 397.765 385.8 403.16C385.8 408.554 387.943 413.728 391.757 417.543C395.572 421.357 400.745 423.5 406.14 423.5C411.534 423.5 416.708 421.357 420.523 417.543C424.337 413.728 426.48 408.554 426.48 403.16C426.48 397.765 424.337 392.592 420.523 388.777ZM406.12 396.88C409.583 396.88 412.39 399.687 412.39 403.15C412.39 406.613 409.583 409.42 406.12 409.42C402.657 409.42 399.85 406.613 399.85 403.15C399.85 399.687 402.657 396.88 406.12 396.88Z" fill="#33D5AD"/>
<path d="M445.23 74.38C434.41 65.31 420.68 79.07 429.54 89.97C429.647 90.1022 429.701 90.2689 429.692 90.4373C429.682 90.6058 429.61 90.7637 429.49 90.88L420.5 99.87C420.448 99.9223 420.386 99.9636 420.318 99.9915C420.25 100.019 420.177 100.033 420.103 100.032C420.029 100.031 419.956 100.016 419.889 99.986C419.821 99.9564 419.761 99.9136 419.71 99.86C397.83 76.11 430.64 42.68 455.1 64.32C455.166 64.3775 455.219 64.4477 455.256 64.5263C455.294 64.6049 455.314 64.6901 455.317 64.7766C455.32 64.8631 455.305 64.9489 455.273 65.0287C455.24 65.1085 455.192 65.1804 455.13 65.24L446.03 74.34C445.926 74.4461 445.786 74.5091 445.638 74.5166C445.49 74.524 445.344 74.4752 445.23 74.38Z" fill="#FFBA24"/>
<path d="M441.46 519.6C441.46 515.458 438.102 512.1 433.96 512.1C429.818 512.1 426.46 515.458 426.46 519.6C426.46 523.742 429.818 527.1 433.96 527.1C438.102 527.1 441.46 523.742 441.46 519.6Z" fill="#FFBA24"/>
<path d="M457.48 750.49C457.48 746.342 454.118 742.98 449.97 742.98C445.822 742.98 442.46 746.342 442.46 750.49C442.46 754.638 445.822 758 449.97 758C454.118 758 457.48 754.638 457.48 750.49Z" fill="#FF8064"/>
<path d="M456.696 262.432L447.602 271.525C447.387 271.74 447.387 272.088 447.602 272.303L469.947 294.648C470.161 294.863 470.51 294.863 470.725 294.648L479.818 285.554C480.033 285.34 480.033 284.991 479.818 284.777L457.473 262.432C457.259 262.217 456.91 262.217 456.696 262.432Z" fill="#FF8064"/>
<path fill-rule="evenodd" clip-rule="evenodd" d="M490.36 621.258C487.893 620.236 485.25 619.71 482.58 619.71C479.91 619.71 477.267 620.236 474.8 621.258C472.333 622.279 470.092 623.777 468.204 625.665C466.317 627.552 464.819 629.793 463.798 632.26C462.776 634.727 462.25 637.37 462.25 640.04C462.25 645.432 464.392 650.603 468.204 654.415C472.017 658.228 477.188 660.37 482.58 660.37C487.972 660.37 493.143 658.228 496.955 654.415C500.768 650.603 502.91 645.432 502.91 640.04C502.91 637.37 502.384 634.727 501.362 632.26C500.341 629.793 498.843 627.552 496.955 625.665C495.068 623.777 492.827 622.279 490.36 621.258ZM482.57 633.79C486.027 633.79 488.83 636.593 488.83 640.05C488.83 643.507 486.027 646.31 482.57 646.31C479.113 646.31 476.31 643.507 476.31 640.05C476.31 636.593 479.113 633.79 482.57 633.79Z" fill="#FA7696"/>
<path d="M510.4 800.04L497.9 800.04L497.7 799.77C497.675 799.739 497.657 799.703 497.646 799.665C497.636 799.626 497.633 799.586 497.639 799.547C497.644 799.508 497.658 799.47 497.679 799.436C497.7 799.402 497.727 799.373 497.76 799.35L505.37 793.72C505.489 793.634 505.637 793.598 505.782 793.619C505.927 793.639 506.059 793.715 506.15 793.83L510.54 799.49C510.575 799.534 510.594 799.587 510.596 799.643C510.598 799.699 510.582 799.754 510.55 799.8L510.4 800.04Z" fill="#FFBA24"/>
<path d="M531.65 162.54C531.65 158.381 528.279 155.01 524.12 155.01C519.961 155.01 516.59 158.381 516.59 162.54C516.59 166.699 519.961 170.07 524.12 170.07C528.279 170.07 531.65 166.699 531.65 162.54Z" fill="#4167F1"/>
<path d="M526.642 539.009L534.652 549.677C534.771 549.836 534.997 549.868 535.156 549.748L560.746 530.535C560.905 530.416 560.937 530.19 560.818 530.031L552.808 519.363C552.689 519.204 552.463 519.172 552.304 519.291L526.714 538.505C526.555 538.624 526.523 538.85 526.642 539.009Z" fill="#33D5AD"/>
<path d="M531.27 0.0399552L545.27 0.0399554L540.98 19.5899C540.967 19.6502 540.942 19.7072 540.907 19.7576C540.871 19.808 540.826 19.8508 540.774 19.8835C540.722 19.9161 540.664 19.9379 540.603 19.9476C540.542 19.9573 540.48 19.9547 540.42 19.94L527.76 16.9699C527.691 16.9549 527.626 16.9261 527.569 16.8851C527.511 16.8442 527.462 16.7919 527.425 16.7314C527.388 16.6709 527.363 16.6033 527.352 16.5327C527.341 16.462 527.343 16.3898 527.36 16.32L531.27 0.0399552Z" fill="#FF8064"/>
<path d="M564.31 335.54C595.1 346.86 581.6 391.26 549.87 383.51C549.794 383.492 549.723 383.458 549.66 383.411C549.598 383.364 549.546 383.305 549.506 383.237C549.467 383.169 549.442 383.093 549.432 383.015C549.423 382.936 549.429 382.856 549.45 382.78L553.11 370.7C553.153 370.559 553.247 370.438 553.373 370.359C553.5 370.28 553.651 370.248 553.8 370.27C567.69 372.45 573.46 355.31 560.4 348.94C560.266 348.872 560.16 348.76 560.101 348.625C560.043 348.489 560.035 348.338 560.08 348.2L563.84 335.77C563.855 335.723 563.879 335.68 563.91 335.643C563.942 335.606 563.981 335.575 564.025 335.554C564.069 335.532 564.117 335.52 564.166 335.518C564.215 335.515 564.264 335.523 564.31 335.54Z" fill="#BE5FD2"/>
<path d="M559.333 697.51L569.337 727.759C569.408 727.974 569.64 728.09 569.855 728.019L582.406 723.868C582.621 723.797 582.738 723.565 582.667 723.35L572.663 693.101C572.592 692.886 572.36 692.77 572.145 692.841L559.594 696.992C559.379 697.063 559.262 697.295 559.333 697.51Z" fill="#4167F1"/>
<path d="M600.96 101.1L601.05 114.12C599.53 117.807 599.5 121.467 600.96 125.1L600.96 139.85C580.67 135.34 580.87 107.13 600.21 100.86C600.303 100.829 600.402 100.821 600.497 100.837C600.593 100.852 600.683 100.891 600.76 100.95L600.96 101.1Z" fill="#28DFDF"/>
</svg>
