<svg width="802" height="603" viewBox="0 0 802 603" fill="none" xmlns="http://www.w3.org/2000/svg">
<g clip-path="url(#clip0_822_25)">
<path d="M141.88 1.64996L175.27 1.45996C175.377 1.50663 175.453 1.5833 175.5 1.68996C175.546 1.78947 175.557 1.90131 175.532 2.00684C175.506 2.11237 175.446 2.20523 175.36 2.26996C163.88 11.09 152.72 10.8833 141.88 1.64996Z" fill="#28DFDF"/>
<path d="M325.7 1.44995L339.52 1.45995C341.22 7.67995 337.24 12.37 330.93 11.35C326.243 10.59 324.5 7.28995 325.7 1.44995Z" fill="#BE5FD2"/>
<path d="M525.52 1.45996L526.77 1.45996L548.9 23.57C549.009 23.6788 549.07 23.8262 549.07 23.98C549.07 24.1338 549.009 24.2812 548.9 24.39L539.77 33.52C539.714 33.5771 539.647 33.6225 539.573 33.6534C539.498 33.6843 539.419 33.7002 539.338 33.7002C539.257 33.7002 539.177 33.6843 539.102 33.6534C539.027 33.6225 538.958 33.5771 538.9 33.52L516.52 11.14C516.42 11.0389 516.364 10.9023 516.364 10.76C516.364 10.6177 516.42 10.4811 516.52 10.38L525.52 1.45996Z" fill="#FA7696"/>
<path d="M688.77 1.45996L703.83 1.48996C701.703 4.82996 701.043 8.16996 701.85 11.51C703.91 20.06 712.99 22.33 720.05 17.2C720.175 17.1081 720.33 17.0647 720.485 17.0775C720.641 17.0904 720.788 17.1586 720.9 17.27L729.93 26.32C729.976 26.3669 730.013 26.4225 730.038 26.4836C730.063 26.5446 730.075 26.6098 730.074 26.6752C730.073 26.7406 730.059 26.8048 730.033 26.8641C730.006 26.9234 729.968 26.9764 729.92 27.02C710.8 44.39 680.78 26.4 688.77 1.45996Z" fill="#33D5AD"/>
<path fill-rule="evenodd" clip-rule="evenodd" d="M70.9829 92.7125C74.7969 88.898 76.9399 83.7245 76.9399 78.33C76.9399 72.9355 74.7969 67.7619 70.9829 63.9474C67.1679 60.133 61.9949 57.99 56.5999 57.99C51.2059 57.99 46.0319 60.1329 42.2169 63.9474C38.4029 67.7619 36.2599 72.9355 36.2599 78.33C36.2599 83.7245 38.4029 88.898 42.2169 92.7125C46.0319 96.527 51.2059 98.67 56.5999 98.67C61.9949 98.67 67.1679 96.527 70.9829 92.7125ZM62.8699 78.33C62.8699 81.7873 60.0669 84.59 56.6099 84.59C53.1529 84.59 50.3499 81.7873 50.3499 78.33C50.3499 74.8727 53.1529 72.07 56.6099 72.07C60.0669 72.07 62.8699 74.8727 62.8699 78.33Z" fill="#BE5FD2"/>
<path d="M385.4 117.61C394.34 106.14 380.34 92.83 369.72 101.86C369.611 101.95 369.472 101.996 369.33 101.988C369.188 101.981 369.052 101.921 368.95 101.82L360.29 93.17C360.163 93.0419 360.066 92.8883 360.003 92.7195C359.94 92.5506 359.914 92.3704 359.926 92.1907C359.939 92.011 359.989 91.8359 360.074 91.6772C360.159 91.5185 360.277 91.3797 360.42 91.27C386.23 71.27 416.57 103.83 395.41 127.25C395.347 127.32 395.271 127.376 395.185 127.415C395.1 127.454 395.007 127.476 394.912 127.477C394.818 127.479 394.724 127.462 394.636 127.426C394.547 127.391 394.467 127.337 394.4 127.27L385.44 118.31C385.349 118.218 385.295 118.096 385.288 117.968C385.28 117.839 385.32 117.712 385.4 117.61Z" fill="#FFBA24"/>
<path d="M187.376 119.676L165.046 142.006C164.792 142.26 164.792 142.671 165.046 142.925L174.125 152.004C174.379 152.258 174.79 152.258 175.044 152.004L197.374 129.674C197.628 129.42 197.628 129.009 197.374 128.755L188.295 119.676C188.041 119.422 187.63 119.422 187.376 119.676Z" fill="#FF8064"/>
<path d="M759.77 137.85C763.923 137.85 767.29 134.483 767.29 130.33C767.29 126.177 763.923 122.81 759.77 122.81C755.617 122.81 752.25 126.177 752.25 130.33C752.25 134.483 755.617 137.85 759.77 137.85Z" fill="#FF8064"/>
<path fill-rule="evenodd" clip-rule="evenodd" d="M608.642 150.114C609.664 147.646 610.19 145.001 610.19 142.33C610.19 136.935 608.047 131.762 604.233 127.947C600.418 124.133 595.245 121.99 589.85 121.99C584.456 121.99 579.282 124.133 575.467 127.947C571.653 131.762 569.51 136.935 569.51 142.33C569.51 145.001 570.036 147.646 571.058 150.114C572.08 152.582 573.579 154.824 575.467 156.713C577.356 158.601 579.598 160.1 582.066 161.122C584.534 162.144 587.179 162.67 589.85 162.67C592.521 162.67 595.166 162.144 597.634 161.122C600.102 160.1 602.344 158.601 604.233 156.713C606.121 154.824 607.62 152.582 608.642 150.114ZM596.09 142.33C596.09 145.782 593.292 148.58 589.84 148.58C586.388 148.58 583.59 145.782 583.59 142.33C583.59 138.878 586.388 136.08 589.84 136.08C593.292 136.08 596.09 138.878 596.09 142.33Z" fill="#4167F1"/>
<path d="M297.21 203.84C301.363 203.84 304.73 200.473 304.73 196.32C304.73 192.167 301.363 188.8 297.21 188.8C293.057 188.8 289.69 192.167 289.69 196.32C289.69 200.473 293.057 203.84 297.21 203.84Z" fill="#33D5AD"/>
<path d="M474.465 206.674L443.136 199.499C442.991 199.465 442.846 199.556 442.813 199.702L439.812 212.802C439.779 212.948 439.87 213.093 440.015 213.126L471.344 220.301C471.489 220.334 471.634 220.244 471.667 220.098L474.668 206.998C474.701 206.852 474.61 206.707 474.465 206.674Z" fill="#FF8064"/>
<path d="M124.01 236.07C124.057 236.085 124.1 236.109 124.137 236.14C124.174 236.172 124.205 236.211 124.226 236.255C124.248 236.299 124.26 236.347 124.262 236.396C124.265 236.445 124.257 236.494 124.24 236.54C121.12 244.84 115.777 250.19 108.21 252.59C88.9501 258.7 70.75 241.49 76.3 222.01C76.319 221.938 76.353 221.87 76.399 221.811C76.446 221.752 76.5041 221.703 76.5701 221.667C76.6361 221.63 76.709 221.607 76.785 221.599C76.86 221.591 76.9371 221.598 77.0101 221.62L89.1401 225.32C89.2861 225.365 89.412 225.461 89.496 225.591C89.58 225.72 89.617 225.875 89.6 226.03C87.83 240.74 105.48 245.4 110.76 232.55C110.818 232.408 110.928 232.293 111.067 232.228C111.206 232.163 111.364 232.153 111.51 232.2L124.01 236.07Z" fill="#FA7696"/>
<path d="M686.574 223.278L656.574 233.142C656.28 233.239 656.12 233.555 656.217 233.849L660.239 246.084C660.336 246.378 660.652 246.538 660.946 246.442L690.946 236.578C691.24 236.481 691.4 236.165 691.303 235.871L687.281 223.636C687.184 223.342 686.868 223.182 686.574 223.278Z" fill="#28DFDF"/>
<path d="M1.49002 312.95L1.46005 277.65L1.76004 277.3C1.82604 277.222 1.91803 277.17 2.01803 277.154C2.11903 277.137 2.22302 277.157 2.31002 277.21C10.15 281.977 13.61 288.81 12.69 297.71C11.97 304.703 8.23702 309.783 1.49002 312.95Z" fill="#28DFDF"/>
<path d="M300.607 307.986L278.064 285.443C277.869 285.248 277.552 285.248 277.357 285.443L268.193 294.607C267.998 294.802 267.998 295.119 268.193 295.314L290.736 317.857C290.931 318.052 291.248 318.052 291.443 317.857L300.607 308.693C300.802 308.498 300.802 308.181 300.607 307.986Z" fill="#4167F1"/>
<path d="M801.46 290.27L801.46 309.02L801.21 309.19C801.142 309.232 801.061 309.25 800.981 309.241C800.902 309.232 800.827 309.196 800.77 309.14L790.15 298.52C790.093 298.462 790.047 298.393 790.017 298.318C789.986 298.243 789.97 298.163 789.97 298.082C789.97 298.001 789.986 297.922 790.017 297.847C790.047 297.773 790.093 297.706 790.15 297.65L799.25 288.55C799.361 288.438 799.51 288.372 799.667 288.365C799.825 288.357 799.979 288.409 800.1 288.51C800.693 289.017 801.147 289.603 801.46 290.27Z" fill="#FA7696"/>
<path d="M483.09 330.07C482.995 329.991 482.917 329.894 482.862 329.783C482.807 329.673 482.776 329.553 482.77 329.43C482.765 329.307 482.785 329.185 482.83 329.072C482.874 328.958 482.943 328.855 483.03 328.77L491.85 319.94C491.944 319.848 492.068 319.794 492.199 319.788C492.33 319.783 492.459 319.826 492.56 319.91C503.13 328.92 516.81 316.5 508.32 304.18C508.239 304.064 508.202 303.923 508.214 303.782C508.227 303.641 508.289 303.51 508.39 303.41L517.42 294.37C517.476 294.314 517.542 294.271 517.615 294.241C517.688 294.212 517.766 294.198 517.844 294.2C517.923 294.202 518 294.22 518.072 294.252C518.143 294.285 518.207 294.332 518.26 294.39C539.55 317.94 508.92 351.16 483.09 330.07Z" fill="#28DFDF"/>
<path d="M674.23 339.95C678.378 339.95 681.74 336.588 681.74 332.44C681.74 328.292 678.378 324.93 674.23 324.93C670.082 324.93 666.72 328.292 666.72 332.44C666.72 336.588 670.082 339.95 674.23 339.95Z" fill="#BE5FD2"/>
<path d="M131.701 349.982L101.97 360.686C101.689 360.787 101.543 361.097 101.644 361.377L106.028 373.552C106.129 373.833 106.438 373.979 106.719 373.878L136.451 363.173C136.731 363.072 136.877 362.763 136.776 362.483L132.392 350.308C132.291 350.027 131.982 349.881 131.701 349.982Z" fill="#33D5AD"/>
<path fill-rule="evenodd" clip-rule="evenodd" d="M412.723 421.023C416.537 417.208 418.68 412.034 418.68 406.64C418.68 401.245 416.537 396.072 412.723 392.257C408.908 388.443 403.735 386.3 398.34 386.3C392.946 386.3 387.772 388.443 383.957 392.257C380.143 396.072 378 401.245 378 406.64C378 412.034 380.143 417.208 383.957 421.023C387.772 424.837 392.946 426.98 398.34 426.98C403.735 426.98 408.908 424.837 412.723 421.023ZM404.62 406.62C404.62 410.083 401.813 412.89 398.35 412.89C394.887 412.89 392.08 410.083 392.08 406.62C392.08 403.157 394.887 400.35 398.35 400.35C401.813 400.35 404.62 403.157 404.62 406.62Z" fill="#33D5AD"/>
<path d="M727.12 445.73C736.19 434.91 722.43 421.18 711.53 430.04C711.398 430.147 711.231 430.201 711.063 430.192C710.894 430.182 710.736 430.11 710.62 429.99L701.63 421C701.578 420.948 701.536 420.886 701.508 420.818C701.481 420.75 701.467 420.677 701.468 420.603C701.469 420.529 701.484 420.456 701.514 420.389C701.544 420.321 701.586 420.261 701.64 420.21C725.39 398.33 758.82 431.14 737.18 455.6C737.122 455.666 737.052 455.719 736.974 455.756C736.895 455.794 736.81 455.814 736.723 455.817C736.637 455.82 736.551 455.805 736.471 455.773C736.391 455.74 736.32 455.692 736.26 455.63L727.16 446.53C727.054 446.426 726.991 446.286 726.983 446.138C726.976 445.99 727.025 445.844 727.12 445.73Z" fill="#FFBA24"/>
<path d="M281.9 441.96C286.042 441.96 289.4 438.602 289.4 434.46C289.4 430.318 286.042 426.96 281.9 426.96C277.758 426.96 274.4 430.318 274.4 434.46C274.4 438.602 277.758 441.96 281.9 441.96Z" fill="#FFBA24"/>
<path d="M51.01 457.98C55.158 457.98 58.52 454.618 58.52 450.47C58.52 446.322 55.158 442.96 51.01 442.96C46.862 442.96 43.5 446.322 43.5 450.47C43.5 454.618 46.862 457.98 51.01 457.98Z" fill="#FF8064"/>
<path d="M539.068 457.196L529.975 448.102C529.76 447.887 529.412 447.887 529.197 448.102L506.852 470.447C506.637 470.661 506.637 471.01 506.852 471.225L515.946 480.318C516.16 480.533 516.509 480.533 516.723 480.318L539.068 457.973C539.283 457.759 539.283 457.41 539.068 457.196Z" fill="#FF8064"/>
<path fill-rule="evenodd" clip-rule="evenodd" d="M180.242 490.86C181.264 488.393 181.79 485.75 181.79 483.08C181.79 480.41 181.264 477.767 180.242 475.3C179.221 472.833 177.723 470.592 175.835 468.704C173.948 466.817 171.707 465.319 169.24 464.298C166.773 463.276 164.13 462.75 161.46 462.75C156.068 462.75 150.897 464.892 147.085 468.704C143.272 472.517 141.13 477.688 141.13 483.08C141.13 488.472 143.272 493.643 147.085 497.455C150.897 501.268 156.068 503.41 161.46 503.41C164.13 503.41 166.773 502.884 169.24 501.862C171.707 500.841 173.948 499.343 175.835 497.455C177.723 495.568 179.221 493.327 180.242 490.86ZM167.71 483.07C167.71 486.527 164.907 489.33 161.45 489.33C157.993 489.33 155.19 486.527 155.19 483.07C155.19 479.613 157.993 476.81 161.45 476.81C164.907 476.81 167.71 479.613 167.71 483.07Z" fill="#FA7696"/>
<path d="M1.45991 510.9L1.45991 498.4L1.72987 498.2C1.76087 498.175 1.79691 498.157 1.83491 498.146C1.87391 498.136 1.91389 498.133 1.95289 498.139C1.99189 498.144 2.02991 498.158 2.06391 498.179C2.09791 498.2 2.12691 498.227 2.14991 498.26L7.77991 505.87C7.86591 505.989 7.90187 506.137 7.88087 506.282C7.86087 506.427 7.78487 506.559 7.66987 506.65L2.00989 511.04C1.96589 511.075 1.91288 511.094 1.85688 511.096C1.80088 511.098 1.7459 511.082 1.6999 511.05L1.45991 510.9Z" fill="#FFBA24"/>
<path d="M638.96 532.15C643.119 532.15 646.49 528.779 646.49 524.62C646.49 520.461 643.119 517.09 638.96 517.09C634.801 517.09 631.43 520.461 631.43 524.62C631.43 528.779 634.801 532.15 638.96 532.15Z" fill="#4167F1"/>
<path d="M262.491 527.142L251.823 535.152C251.664 535.271 251.632 535.497 251.752 535.656L270.965 561.246C271.084 561.405 271.31 561.437 271.469 561.318L282.137 553.308C282.296 553.189 282.328 552.963 282.209 552.804L262.995 527.214C262.876 527.055 262.65 527.023 262.491 527.142Z" fill="#33D5AD"/>
<path d="M801.46 531.77L801.46 545.77L781.91 541.48C781.85 541.467 781.793 541.442 781.742 541.407C781.692 541.371 781.649 541.326 781.616 541.274C781.584 541.222 781.562 541.164 781.552 541.103C781.543 541.042 781.545 540.98 781.56 540.92L784.53 528.26C784.545 528.191 784.574 528.126 784.615 528.069C784.656 528.011 784.708 527.962 784.769 527.925C784.829 527.888 784.897 527.863 784.967 527.852C785.038 527.841 785.11 527.843 785.18 527.86L801.46 531.77Z" fill="#FF8064"/>
<path d="M465.96 564.81C454.64 595.6 410.24 582.1 417.99 550.37C418.008 550.294 418.042 550.223 418.089 550.16C418.136 550.098 418.195 550.046 418.263 550.006C418.331 549.967 418.407 549.942 418.485 549.932C418.564 549.923 418.644 549.929 418.72 549.95L430.8 553.61C430.941 553.653 431.062 553.747 431.141 553.873C431.22 554 431.252 554.151 431.23 554.3C429.05 568.19 446.19 573.96 452.56 560.9C452.628 560.766 452.74 560.66 452.875 560.601C453.011 560.543 453.162 560.535 453.3 560.58L465.73 564.34C465.777 564.355 465.82 564.379 465.857 564.41C465.894 564.442 465.925 564.481 465.946 564.525C465.968 564.569 465.98 564.617 465.982 564.666C465.985 564.715 465.977 564.764 465.96 564.81Z" fill="#BE5FD2"/>
<path d="M103.99 559.833L73.7409 569.837C73.5259 569.908 73.4098 570.14 73.4808 570.355L77.6318 582.906C77.7028 583.121 77.9349 583.238 78.1499 583.167L108.399 573.163C108.614 573.092 108.73 572.86 108.659 572.645L104.508 560.094C104.437 559.879 104.205 559.762 103.99 559.833Z" fill="#4167F1"/>
<path d="M700.4 601.46L687.38 601.55C683.693 600.03 680.033 600 676.4 601.46L661.65 601.46C666.16 581.17 694.37 581.37 700.64 600.71C700.671 600.803 700.679 600.902 700.663 600.997C700.648 601.093 700.609 601.183 700.55 601.26L700.4 601.46Z" fill="#28DFDF"/>
</g>
<defs>
<clipPath id="clip0_822_25">
<rect width="602" height="801" fill="white" transform="translate(801.5 0.5) rotate(90)"/>
</clipPath>
</defs>
</svg>
