<svg width="695" height="695" viewBox="0 0 695 695" fill="none" xmlns="http://www.w3.org/2000/svg">
<path d="M667.759 243.538L656.011 267.47C631.233 317.946 631.233 377.054 656.011 427.53L667.759 451.462C735.672 589.812 589.812 735.672 451.462 667.759L427.53 656.011C377.053 631.233 317.946 631.233 267.47 656.011L243.538 667.759C105.188 735.672 -40.6725 589.812 27.2413 451.462L38.989 427.53C63.7671 377.053 63.7671 317.946 38.9889 267.47L27.2413 243.538C-40.6725 105.188 105.188 -40.6725 243.538 27.2413L267.47 38.989C317.946 63.7671 377.054 63.7671 427.53 38.9889L451.462 27.2413C589.812 -40.6725 735.672 105.188 667.759 243.538Z" stroke="black" stroke-width="20"/>
</svg>
