<svg width="695" height="695" viewBox="0 0 695 695" fill="none" xmlns="http://www.w3.org/2000/svg">
<path d="M447.055 18.2645C593.966 -53.8515 748.851 101.034 676.735 247.945L664.988 271.876C641.574 319.574 641.574 375.426 664.988 423.124L676.735 447.055C748.851 593.966 593.966 748.851 447.055 676.735L423.124 664.988C375.426 641.574 319.574 641.574 271.876 664.988L247.945 676.735C101.034 748.851 -53.8514 593.966 18.2646 447.055L30.0122 423.124C53.426 375.426 53.426 319.574 30.0122 271.876L18.2646 247.945C-53.8514 101.034 101.034 -53.8514 247.945 18.2646L271.876 30.0122C319.574 53.426 375.426 53.426 423.124 30.0122L447.055 18.2645Z" fill="black"/>
</svg>
