<svg width="497" height="494" viewBox="0 0 497 494" fill="none" xmlns="http://www.w3.org/2000/svg">
<path d="M219.35 8.5241C237.062 -2.77389 259.719 -2.7739 277.43 8.52409L288.24 15.4191C298.227 21.7899 310.033 24.6997 321.837 23.7001L334.612 22.6182C355.546 20.8454 375.607 31.3745 386.04 49.6095L392.407 60.7382C398.29 71.0207 407.391 79.0833 418.307 83.6838L430.122 88.663C449.482 96.8216 462.352 115.468 463.116 136.462L463.582 149.275C464.012 161.114 468.324 172.482 475.852 181.629L484 191.528C497.35 207.749 500.081 230.241 491 249.185L485.459 260.747C480.338 271.43 478.873 283.5 481.288 295.097L483.902 307.649C488.185 328.217 480.151 349.401 463.306 361.956L453.026 369.617C443.528 376.697 436.621 386.703 433.37 398.095L429.851 410.424C424.085 430.626 407.126 445.65 386.377 448.938L373.714 450.945C362.013 452.799 351.247 458.45 343.075 467.026L334.23 476.307C319.736 491.516 297.738 496.938 277.837 490.207L265.691 486.099C254.469 482.304 242.311 482.304 231.089 486.099L218.944 490.207C199.043 496.938 177.044 491.516 162.551 476.307L153.706 467.026C145.533 458.45 134.767 452.799 123.067 450.945L110.403 448.938C89.6539 445.65 72.695 430.626 66.9295 410.424L63.4108 398.095C60.1596 386.703 53.2527 376.697 43.7544 369.617L33.4743 361.956C16.6297 349.401 8.59556 328.217 12.8786 307.649L15.4926 295.097C17.9077 283.5 16.4422 271.43 11.3217 260.747L5.77986 249.186C-3.30082 230.241 -0.569868 207.749 12.7807 191.528L20.9284 181.629C28.4566 172.482 32.7681 161.114 33.1986 149.275L33.6645 136.462C34.428 115.468 47.2985 96.8216 66.658 88.663L78.473 83.6838C89.3896 79.0833 98.4904 71.0206 104.373 60.7382L110.74 49.6096C121.173 31.3746 141.234 20.8454 162.168 22.6182L174.944 23.7001C186.748 24.6997 198.553 21.7899 208.54 15.4192L219.35 8.5241Z" fill="black"/>
</svg>
