<svg width="497" height="494" viewBox="0 0 497 494" fill="none" xmlns="http://www.w3.org/2000/svg">
<path d="M272.053 16.9549L282.862 23.85C294.699 31.4005 308.69 34.8491 322.681 33.6644L335.456 32.5825C352.513 31.138 368.86 39.7173 377.36 54.5755L383.727 65.7041C390.699 77.8908 401.486 87.4465 414.424 92.899L426.239 97.8781C442.013 104.526 452.5 119.719 453.122 136.826L453.588 149.639C454.099 163.669 459.208 177.143 468.131 187.984L476.278 197.883C487.157 211.1 489.382 229.427 481.983 244.863L476.441 256.425C470.372 269.086 468.635 283.391 471.498 297.136L474.112 309.688C477.602 326.447 471.055 343.708 457.33 353.938L447.05 361.6C435.793 369.99 427.607 381.849 423.753 395.35L420.235 407.679C415.537 424.14 401.719 436.382 384.812 439.061L372.148 441.068C358.281 443.266 345.522 449.963 335.836 460.127L326.99 469.408C315.181 481.8 297.256 486.218 281.041 480.734L268.895 476.626C255.595 472.128 241.185 472.128 227.885 476.626L215.74 480.734C199.524 486.218 181.599 481.8 169.79 469.408L160.945 460.127C151.259 449.963 138.499 443.266 124.632 441.068L111.969 439.061C95.0617 436.382 81.2434 424.14 76.5455 407.679L73.0268 395.35C69.1736 381.849 60.9877 369.99 49.7303 361.6L39.4502 353.938C25.7251 343.708 19.1787 326.447 22.6686 309.688L25.2825 297.136C28.145 283.391 26.408 269.086 20.3393 256.425L14.7975 244.863C7.39837 229.427 9.6236 211.1 20.5018 197.883L28.6496 187.984C37.5718 177.143 42.6818 163.669 43.192 149.639L43.6579 136.826C44.28 119.719 54.7671 104.526 70.5415 97.8781L82.3565 92.899C95.2946 87.4465 106.081 77.8907 113.053 65.7041L119.42 54.5755C127.921 39.7173 144.267 31.138 161.324 32.5825L174.1 33.6644C188.09 34.8491 202.081 31.4005 213.918 23.85L224.728 16.9549C239.16 7.74916 257.621 7.74916 272.053 16.9549Z" stroke="black" stroke-width="20"/>
</svg>
